<svg xmlns="http://www.w3.org/2000/svg" xmlns:xlink="http://www.w3.org/1999/xlink" width="750" zoomAndPan="magnify" viewBox="0 0 562.5 562.499982" height="750" preserveAspectRatio="xMidYMid meet" version="1.0"><path fill="#1d1d1b" d="M 133.089844 195.515625 C 134.964844 192.066406 137.488281 188.941406 139.929688 185.917969 C 141.460938 184.015625 143.046875 182.054688 144.46875 180.015625 C 145.949219 177.894531 147.292969 175.644531 148.59375 173.464844 C 150.328125 170.550781 152.121094 167.542969 154.246094 164.855469 C 156.746094 161.699219 161.964844 156.359375 168.867188 156.058594 C 169.035156 156.050781 169.203125 156.046875 169.367188 156.046875 C 174.285156 156.046875 178.90625 159.183594 180.722656 163.804688 C 182.324219 167.890625 181.25 172.058594 177.847656 174.953125 C 176.78125 175.863281 175.597656 176.691406 174.453125 177.496094 C 172.460938 178.894531 170.394531 180.34375 168.8125 182.285156 C 165.734375 186.042969 164.9375 190.933594 164.171875 195.664062 C 163.898438 197.328125 163.617188 199.042969 163.242188 200.671875 C 161.425781 208.582031 156.996094 214.78125 151.09375 217.675781 C 145.105469 220.605469 136.070312 219.566406 132.15625 213.335938 C 128.695312 207.816406 130.367188 200.511719 133.089844 195.515625 Z M 144.0625 220.351562 C 146.722656 220.351562 149.355469 219.777344 151.585938 218.683594 C 157.800781 215.640625 162.445312 209.164062 164.339844 200.925781 C 164.722656 199.261719 165.003906 197.527344 165.277344 195.847656 C 166.023438 191.261719 166.796875 186.519531 169.679688 182.996094 C 171.167969 181.175781 173.078125 179.835938 175.097656 178.417969 C 176.265625 177.601562 177.46875 176.753906 178.574219 175.808594 C 182.359375 172.589844 183.554688 167.945312 181.769531 163.398438 C 179.71875 158.171875 174.371094 154.691406 168.820312 154.9375 C 161.46875 155.253906 155.980469 160.851562 153.363281 164.15625 C 151.195312 166.902344 149.382812 169.945312 147.625 172.890625 C 146.335938 175.050781 145.003906 177.285156 143.546875 179.371094 C 142.148438 181.375 140.574219 183.328125 139.054688 185.210938 C 136.578125 188.273438 134.023438 191.445312 132.101562 194.976562 C 129.230469 200.253906 127.484375 208.007812 131.207031 213.933594 C 133.96875 218.332031 139.0625 220.351562 144.0625 220.351562 " fill-opacity="1" fill-rule="nonzero"/><path fill="#1d1d1b" d="M 117.503906 187.5 L 151.308594 141.316406 C 158.777344 131.113281 166.378906 121.710938 177.191406 118.753906 C 179.628906 118.085938 182.066406 117.777344 184.496094 117.777344 C 196.988281 117.777344 209.1875 125.835938 219.90625 133.691406 C 224.75 137.246094 229.765625 140.921875 233.21875 145.949219 C 236.164062 150.234375 238.40625 156.914062 235.875 162.796875 C 233.519531 168.25 227.933594 171.230469 223.664062 172.769531 C 220.109375 174.054688 216.636719 174.988281 213.285156 175.898438 C 203.945312 178.417969 195.128906 180.800781 187.710938 189.964844 C 184.949219 193.371094 182.550781 197.246094 180.367188 201.800781 C 177.367188 208.066406 175.257812 214.738281 173.753906 219.84375 C 173.117188 221.996094 172.511719 224.148438 171.902344 226.308594 C 169.566406 234.59375 167.152344 243.160156 163.347656 250.996094 C 162.140625 253.480469 160.722656 256.035156 158.558594 257.890625 C 148.546875 266.460938 130.523438 254.574219 123.242188 249.0625 C 114.410156 242.382812 105.941406 234.769531 103.777344 224.390625 C 101.058594 211.355469 109.066406 199.019531 117.503906 187.5 Z M 122.5625 249.957031 C 128.140625 254.179688 139.855469 262.011719 149.859375 262.011719 C 153.3125 262.011719 156.566406 261.078125 159.292969 258.742188 C 161.609375 256.753906 163.097656 254.082031 164.359375 251.488281 C 168.203125 243.566406 170.632812 234.945312 172.980469 226.617188 C 173.59375 224.460938 174.199219 222.304688 174.832031 220.160156 C 176.324219 215.09375 178.417969 208.480469 181.382812 202.285156 C 183.523438 197.8125 185.882812 194.007812 188.585938 190.671875 C 195.773438 181.789062 204.023438 179.5625 213.574219 176.980469 C 216.953125 176.070312 220.449219 175.125 224.046875 173.828125 C 228.527344 172.214844 234.394531 169.0625 236.90625 163.238281 C 239.175781 157.96875 238.121094 151.097656 234.144531 145.308594 C 230.582031 140.125 225.492188 136.394531 220.566406 132.785156 C 207.5625 123.25 192.382812 113.433594 176.894531 117.667969 C 165.734375 120.71875 157.992188 130.28125 150.40625 140.652344 L 116.59375 186.839844 C 108.386719 198.046875 99.863281 211.136719 102.679688 224.625 C 104.914062 235.363281 113.558594 243.148438 122.5625 249.957031 " fill-opacity="1" fill-rule="nonzero"/><path fill="#1d1d1b" d="M 79.914062 207.941406 C 80.648438 207.289062 81.378906 206.644531 82.105469 205.992188 C 110.371094 180.570312 131.757812 146.453125 142.316406 109.929688 C 142.558594 109.097656 142.796875 108.257812 143.035156 107.421875 C 145.347656 99.261719 147.742188 90.828125 153.636719 84.933594 C 158.109375 80.46875 164.457031 77.960938 170.773438 77.960938 C 172.523438 77.960938 174.273438 78.152344 175.980469 78.546875 C 188.402344 81.4375 196.953125 92 205.226562 102.21875 C 207.867188 105.476562 210.359375 108.554688 212.964844 111.378906 C 222.066406 121.234375 232.734375 129.460938 244.671875 135.832031 C 249.996094 138.671875 255.890625 140.652344 261.585938 142.5625 C 268.523438 144.890625 275.695312 147.296875 281.769531 151.265625 C 288.054688 155.371094 293.171875 163.621094 290.265625 170.816406 C 287.621094 177.367188 279.832031 179.859375 273.964844 180 C 269.890625 180.105469 265.777344 179.402344 261.796875 178.726562 C 259.160156 178.277344 256.4375 177.816406 253.730469 177.578125 C 247.878906 177.074219 242.304688 177.429688 237.183594 178.632812 C 220.472656 182.554688 203.550781 195.777344 194.074219 212.316406 C 187.703125 223.433594 183.757812 235.785156 179.941406 247.730469 C 179.160156 250.167969 178.453125 253.164062 177.703125 256.332031 C 175.738281 264.640625 173.511719 274.0625 168.941406 278.664062 C 162.425781 285.21875 147.523438 286.527344 139.507812 285.351562 C 128.539062 283.726562 118.539062 277.542969 109.714844 272.085938 L 73.875 249.9375 C 71.238281 248.308594 68.507812 246.617188 66.539062 244.199219 C 61.5625 238.078125 62.875 229.066406 66.386719 222.859375 C 69.691406 217.015625 74.890625 212.402344 79.914062 207.941406 Z M 65.40625 222.304688 C 61.707031 228.847656 60.355469 238.371094 65.667969 244.910156 C 67.757812 247.472656 70.566406 249.210938 73.285156 250.894531 L 109.125 273.042969 C 118.039062 278.554688 128.144531 284.800781 139.34375 286.460938 C 141.164062 286.730469 143.273438 286.878906 145.546875 286.878906 C 153.890625 286.878906 164.34375 284.882812 169.738281 279.453125 C 174.535156 274.628906 176.800781 265.042969 178.796875 256.589844 C 179.542969 253.445312 180.242188 250.472656 181.007812 248.074219 C 184.808594 236.183594 188.738281 223.890625 195.050781 212.878906 C 204.378906 196.59375 221.015625 183.582031 237.4375 179.726562 C 242.445312 178.550781 247.898438 178.207031 253.632812 178.699219 C 256.292969 178.929688 259 179.386719 261.605469 179.832031 C 265.640625 180.515625 269.8125 181.226562 273.992188 181.121094 C 280.199219 180.972656 288.460938 178.289062 291.308594 171.238281 C 294.441406 163.484375 289.046875 154.675781 282.382812 150.320312 C 276.1875 146.277344 268.949219 143.847656 261.945312 141.496094 C 256.289062 139.601562 250.441406 137.636719 245.203125 134.839844 C 233.375 128.53125 222.808594 120.378906 213.789062 110.613281 C 211.210938 107.820312 208.730469 104.757812 206.101562 101.511719 C 197.710938 91.144531 189.035156 80.433594 176.234375 77.453125 C 168.003906 75.539062 158.820312 78.167969 152.84375 84.136719 C 146.738281 90.242188 144.308594 98.816406 141.953125 107.113281 C 141.714844 107.953125 141.480469 108.785156 141.238281 109.617188 C 130.734375 145.941406 109.46875 179.871094 81.355469 205.15625 C 80.628906 205.804688 79.902344 206.453125 79.171875 207.101562 C 74.074219 211.625 68.804688 216.300781 65.40625 222.304688 " fill-opacity="1" fill-rule="nonzero"/><path fill="#1d1d1b" d="M 119.492188 116.234375 C 120.527344 109.554688 121.367188 102.714844 122.171875 96.097656 C 124.261719 79.078125 126.417969 61.480469 132.167969 45.113281 C 134.125 39.535156 137.050781 32.4375 142.292969 27.039062 C 146.871094 22.328125 152.675781 19.683594 158.238281 19.683594 C 159.089844 19.683594 159.9375 19.746094 160.773438 19.871094 C 166.953125 20.804688 171.792969 24.832031 176.90625 29.097656 C 181.542969 32.960938 186.339844 36.957031 192.203125 38.378906 C 197.191406 39.59375 202.578125 38.871094 207.789062 38.175781 C 215.082031 37.199219 221.972656 36.273438 227.34375 40.46875 C 233.492188 45.265625 233.835938 53.902344 234.164062 62.257812 C 234.203125 63.308594 234.246094 64.34375 234.296875 65.363281 C 235.242188 83.59375 242.960938 101.664062 255.476562 114.957031 C 264.671875 124.714844 271.796875 130.125 285.203125 132.625 C 294.234375 134.304688 302.742188 136.347656 307.582031 142.769531 C 310.042969 146.046875 311.160156 149.953125 312.339844 154.089844 C 313.015625 156.476562 313.722656 158.945312 314.707031 161.257812 C 318.039062 169.074219 325.082031 175.90625 334.53125 180.5 C 339.5 182.914062 345.382812 184.488281 351.074219 186.019531 C 361.925781 188.929688 373.140625 191.9375 379.707031 200.832031 C 381.871094 203.765625 382.898438 208.121094 382.257812 211.660156 C 381.792969 214.230469 380.507812 216.265625 378.542969 217.546875 C 371.933594 221.855469 360.132812 216.308594 356.671875 214.507812 C 352.726562 212.453125 348.980469 209.878906 345.355469 207.394531 C 342.757812 205.613281 340.082031 203.773438 337.332031 202.128906 C 323.589844 193.882812 307.117188 190.234375 285.515625 190.636719 C 273.429688 190.863281 261.308594 192.144531 249.480469 194.429688 C 238.167969 196.621094 229.378906 201.296875 221.5625 206.019531 C 206.5 215.132812 200.121094 231.597656 194.410156 249.09375 C 189.859375 263.03125 185.324219 276.96875 180.792969 290.914062 L 174.179688 311.246094 C 172 317.953125 169.1875 324.433594 163.441406 326.414062 C 157.628906 328.417969 151.234375 324.734375 147.472656 320.195312 C 145.113281 317.347656 143.304688 314.003906 141.558594 310.773438 C 140.355469 308.546875 139.113281 306.246094 137.6875 304.097656 C 129.652344 291.988281 116.304688 284.972656 104.304688 279.710938 C 101.832031 278.625 99.328125 277.570312 96.832031 276.523438 C 86.679688 272.25 76.183594 267.832031 67.4375 261.003906 C 57.777344 253.460938 48.296875 240.230469 50.675781 225.722656 C 52.070312 217.238281 57.546875 208.902344 66.960938 200.941406 C 70.191406 198.210938 73.671875 195.644531 77.027344 193.171875 C 81.78125 189.660156 86.691406 186.039062 91.023438 181.863281 C 105.6875 167.722656 114.730469 146.871094 119.492188 116.234375 Z M 76.363281 192.265625 C 72.984375 194.753906 69.5 197.328125 66.238281 200.085938 C 56.613281 208.222656 51.007812 216.789062 49.566406 225.542969 C 47.113281 240.53125 56.828125 254.148438 66.746094 261.890625 C 75.605469 268.8125 86.175781 273.253906 96.390625 277.554688 C 98.890625 278.605469 101.382812 279.65625 103.855469 280.738281 C 115.703125 285.941406 128.875 292.855469 136.75 304.722656 C 138.148438 306.824219 139.378906 309.105469 140.570312 311.308594 C 142.34375 314.589844 144.175781 317.976562 146.609375 320.914062 C 149.835938 324.804688 154.914062 328.09375 160.070312 328.09375 C 161.320312 328.09375 162.578125 327.90625 163.808594 327.480469 C 170.019531 325.332031 172.976562 318.574219 175.25 311.59375 L 181.863281 291.261719 C 186.394531 277.320312 190.925781 263.375 195.476562 249.441406 C 201.121094 232.15625 207.410156 215.894531 222.148438 206.984375 C 231.074219 201.582031 239.175781 197.570312 249.695312 195.535156 C 261.457031 193.257812 273.519531 191.988281 285.535156 191.761719 C 306.902344 191.359375 323.203125 194.957031 336.757812 203.089844 C 339.46875 204.71875 342.140625 206.546875 344.71875 208.320312 C 348.371094 210.824219 352.144531 213.417969 356.15625 215.503906 C 359.75 217.378906 372.035156 223.128906 379.15625 218.488281 C 381.386719 217.03125 382.839844 214.742188 383.363281 211.859375 C 384.066406 207.972656 382.984375 203.382812 380.609375 200.164062 C 373.8125 190.953125 362.402344 187.890625 351.367188 184.929688 C 345.46875 183.347656 339.890625 181.855469 335.023438 179.488281 C 325.816406 175.015625 318.96875 168.378906 315.742188 160.816406 C 314.785156 158.566406 314.089844 156.136719 313.421875 153.78125 C 312.261719 149.730469 311.066406 145.535156 308.476562 142.09375 C 303.402344 135.351562 294.667969 133.242188 285.414062 131.519531 C 272.308594 129.078125 265.324219 123.765625 256.292969 114.183594 C 243.960938 101.089844 236.351562 83.273438 235.421875 65.304688 C 235.367188 64.292969 235.328125 63.253906 235.289062 62.214844 C 234.964844 54.003906 234.59375 44.699219 228.035156 39.582031 C 222.289062 35.101562 214.84375 36.09375 207.640625 37.0625 C 202.535156 37.742188 197.253906 38.453125 192.472656 37.289062 C 186.855469 35.925781 182.164062 32.011719 177.628906 28.230469 C 172.617188 24.054688 167.4375 19.742188 160.941406 18.761719 C 154.285156 17.753906 147.019531 20.558594 141.484375 26.257812 C 136.085938 31.808594 133.105469 39.050781 131.109375 44.742188 C 125.316406 61.222656 123.152344 78.882812 121.058594 95.960938 C 120.25 102.570312 119.410156 109.398438 118.378906 116.0625 C 113.660156 146.441406 104.722656 167.09375 90.246094 181.054688 C 85.96875 185.179688 81.085938 188.78125 76.363281 192.265625 " fill-opacity="1" fill-rule="nonzero"/><path fill="#1d1d1b" d="M 448.179688 391.855469 C 448.9375 401.667969 449.226562 412.117188 446.242188 422.058594 C 443.0625 432.628906 436.121094 441.042969 427.667969 444.558594 C 419.222656 448.078125 408.675781 447.351562 396.320312 442.410156 C 392.527344 440.890625 388.753906 439.101562 385.105469 437.367188 C 379.046875 434.492188 372.777344 431.519531 366.1875 429.683594 C 341.722656 422.882812 316.378906 431.933594 290.40625 442.644531 C 263.511719 453.734375 239.300781 462.402344 215.378906 456.140625 C 197.945312 451.585938 182.925781 438.109375 175.195312 420.109375 C 168.007812 403.363281 168.4375 385.507812 176.371094 371.105469 C 179.144531 366.074219 182.789062 361.296875 186.316406 356.671875 C 190.453125 351.253906 194.730469 345.648438 197.605469 339.613281 C 202.4375 329.484375 205.476562 317.753906 208.410156 306.410156 C 209.859375 300.800781 211.230469 295.507812 212.804688 290.367188 C 214.984375 283.265625 217.445312 275.214844 220.4375 267.695312 C 223.554688 259.871094 226.941406 253.355469 230.796875 247.785156 C 241.023438 233.019531 257.355469 222.03125 275.613281 217.644531 C 285.882812 215.175781 300.699219 213.640625 313 220.339844 C 319.296875 223.769531 324.898438 228.476562 330.3125 233.023438 C 334.316406 236.386719 338.457031 239.863281 342.863281 242.824219 C 351.78125 248.804688 361.945312 252.78125 371.777344 256.625 C 378.640625 259.308594 385.742188 262.089844 392.355469 265.523438 C 432.007812 286.132812 444.59375 345.597656 448.179688 391.855469 Z M 372.183594 255.578125 C 362.410156 251.753906 352.304688 247.800781 343.492188 241.886719 C 339.132812 238.964844 335.019531 235.507812 331.035156 232.164062 C 325.578125 227.578125 319.933594 222.835938 313.535156 219.351562 C 300.921875 212.480469 285.808594 214.035156 275.347656 216.550781 C 256.828125 221.003906 240.253906 232.15625 229.875 247.144531 C 225.96875 252.785156 222.539062 259.375 219.394531 267.285156 C 216.386719 274.839844 213.910156 282.914062 211.730469 290.035156 C 210.144531 295.203125 208.707031 300.753906 207.320312 306.128906 C 204.402344 317.421875 201.378906 329.097656 196.589844 339.132812 C 193.761719 345.054688 189.527344 350.617188 185.425781 355.992188 C 181.871094 360.644531 178.199219 365.457031 175.386719 370.566406 C 167.28125 385.269531 166.839844 403.488281 174.164062 420.550781 C 182.03125 438.871094 197.332031 452.582031 215.09375 457.230469 C 220.757812 458.710938 226.425781 459.375 232.136719 459.375 C 250.890625 459.375 270.070312 452.242188 290.832031 443.683594 C 316.617188 433.046875 341.761719 424.058594 365.886719 430.769531 C 372.382812 432.574219 378.609375 435.527344 384.625 438.386719 C 388.285156 440.121094 392.074219 441.921875 395.902344 443.449219 C 408.539062 448.511719 419.375 449.230469 428.097656 445.601562 C 436.859375 441.953125 444.042969 433.277344 447.316406 422.382812 C 450.355469 412.265625 450.066406 401.691406 449.296875 391.765625 C 445.691406 345.226562 432.980469 285.375 392.875 264.527344 C 386.207031 261.0625 379.078125 258.273438 372.183594 255.578125 " fill-opacity="1" fill-rule="nonzero"/><path fill="#1d1d1b" d="M 424.117188 364.265625 C 426.375 374.703125 426.632812 383.039062 424.933594 390.484375 C 422.832031 399.714844 417.289062 407.414062 410.117188 411.082031 C 403.171875 414.628906 394.277344 414.953125 383.671875 412.050781 C 379.644531 410.949219 375.640625 409.496094 371.773438 408.097656 C 367.152344 406.421875 362.378906 404.691406 357.511719 403.53125 C 333.722656 397.855469 313.035156 407.476562 290.371094 419.65625 C 288.917969 420.4375 287.464844 421.226562 286.011719 422.015625 C 273.789062 428.636719 261.15625 435.484375 247.550781 438.859375 C 233.101562 442.414062 210.8125 440.066406 197.96875 428.710938 C 190.765625 422.335938 187.699219 414.152344 188.863281 404.386719 C 189.6875 397.460938 193.25 390.6875 196.691406 384.128906 C 198.734375 380.246094 200.839844 376.234375 202.296875 372.304688 C 206.664062 360.558594 210.203125 348.222656 213.625 336.292969 C 215.183594 330.867188 216.792969 325.261719 218.453125 319.808594 C 226.324219 293.933594 235.839844 267.621094 257.679688 255.085938 C 266.152344 250.226562 276.332031 247.753906 287.179688 247.753906 C 294.457031 247.753906 302.039062 248.863281 309.605469 251.113281 C 327.324219 256.382812 343.308594 267.019531 356.601562 276.738281 C 372.941406 288.671875 386.945312 300.613281 399.425781 313.246094 C 415.207031 329.21875 421.953125 354.246094 424.117188 364.265625 Z M 309.925781 250.039062 C 290.785156 244.351562 271.542969 245.835938 257.121094 254.113281 C 234.921875 266.855469 225.3125 293.390625 217.375 319.480469 C 215.714844 324.945312 214.105469 330.558594 212.546875 335.980469 C 209.128906 347.890625 205.589844 360.207031 201.246094 371.914062 C 199.8125 375.773438 197.8125 379.578125 195.699219 383.605469 C 192.207031 390.253906 188.597656 397.125 187.746094 404.25 C 186.554688 414.265625 189.828125 423.011719 197.222656 429.550781 C 206.679688 437.917969 221.125 441.507812 233.96875 441.507812 C 238.957031 441.507812 243.703125 440.964844 247.824219 439.949219 C 261.5625 436.539062 274.265625 429.65625 286.546875 423 C 288 422.214844 289.453125 421.429688 290.902344 420.648438 C 313.359375 408.578125 333.859375 399.042969 357.253906 404.621094 C 362.058594 405.773438 366.800781 407.488281 371.386719 409.152344 C 375.28125 410.5625 379.304688 412.019531 383.371094 413.136719 C 394.257812 416.113281 403.429688 415.757812 410.625 412.082031 C 418.09375 408.265625 423.855469 400.285156 426.03125 390.738281 C 427.765625 383.121094 427.511719 374.632812 425.214844 364.027344 C 423.027344 353.910156 416.21875 328.636719 400.222656 312.453125 C 387.703125 299.785156 373.652344 287.800781 357.265625 275.828125 C 343.890625 266.058594 327.808594 255.351562 309.925781 250.039062 " fill-opacity="1" fill-rule="nonzero"/><path fill="#1d1d1b" d="M 395.570312 368.023438 C 391.214844 375.078125 382.117188 379.691406 371.230469 380.363281 C 364.84375 380.757812 358.339844 379.964844 352.058594 379.195312 C 348.9375 378.816406 345.714844 378.417969 342.53125 378.171875 C 316.375 376.140625 289.457031 384.144531 268.652344 400.113281 C 266.90625 401.453125 265.167969 402.875 263.484375 404.25 C 259.160156 407.785156 254.691406 411.4375 249.695312 414.03125 C 241.832031 418.125 233.546875 418.65625 227.527344 415.464844 C 220.066406 411.5 217.050781 402.78125 216.722656 395.945312 C 216.332031 387.988281 218.695312 380.226562 220.984375 372.730469 L 241.703125 304.796875 C 244.394531 295.972656 247.441406 285.976562 254.265625 278.847656 C 259.207031 273.695312 263.941406 271.140625 268.757812 271.039062 C 268.859375 271.039062 268.957031 271.035156 269.058594 271.035156 C 277.140625 271.035156 284.246094 277.855469 291.753906 285.070312 L 292.464844 285.75 C 305.71875 298.476562 321.8125 308.199219 338.996094 313.882812 C 343.339844 315.316406 347.855469 316.542969 352.226562 317.722656 C 362.550781 320.515625 373.226562 323.40625 382.21875 329.308594 C 395.015625 337.707031 403.4375 355.269531 395.570312 368.023438 Z M 339.347656 312.816406 C 322.320312 307.1875 306.378906 297.546875 293.242188 284.941406 L 292.535156 284.257812 C 285.097656 277.117188 277.4375 269.75 268.738281 269.914062 C 263.609375 270.019531 258.609375 272.6875 253.453125 278.070312 C 246.445312 285.390625 243.355469 295.523438 240.628906 304.46875 L 219.910156 372.398438 C 217.59375 379.996094 215.199219 387.847656 215.597656 396 C 215.945312 403.148438 219.125 412.269531 227 416.457031 C 229.765625 417.921875 232.976562 418.652344 236.394531 418.652344 C 240.816406 418.652344 245.59375 417.429688 250.214844 415.027344 C 255.316406 412.382812 259.828125 408.6875 264.199219 405.117188 C 265.871094 403.753906 267.601562 402.335938 269.339844 401.003906 C 289.921875 385.203125 316.570312 377.296875 342.441406 379.292969 C 345.605469 379.539062 348.8125 379.929688 351.921875 380.3125 C 358.257812 381.085938 364.808594 381.886719 371.300781 381.484375 C 382.71875 380.78125 391.910156 376.089844 396.523438 368.609375 C 404.738281 355.304688 396.074219 337.054688 382.835938 328.371094 C 373.691406 322.367188 362.929688 319.457031 352.523438 316.640625 C 348.167969 315.457031 343.664062 314.242188 339.347656 312.816406 " fill-opacity="1" fill-rule="nonzero"/><path fill="#1d1d1b" d="M 328.796875 359.792969 C 324.398438 361.648438 319.429688 361.792969 314.632812 361.933594 C 313.457031 361.964844 312.285156 362 311.125 362.054688 C 295.359375 362.835938 279.660156 368.394531 266.925781 377.71875 C 266.324219 378.15625 265.726562 378.609375 265.128906 379.058594 C 262.46875 381.058594 259.71875 383.128906 256.613281 384.3125 C 253.4375 385.519531 248.613281 385.90625 245.484375 383.007812 L 245.484375 383.011719 C 243.460938 381.128906 242.535156 377.828125 242.734375 373.1875 C 243.453125 356.8125 258.234375 328.609375 265.777344 322.75 C 274.160156 316.25 280.992188 318.773438 289.964844 325.332031 C 302.941406 334.8125 309.457031 336.800781 325.136719 338.714844 C 329.691406 339.273438 335.132812 341.539062 336.707031 346.226562 C 338.566406 351.765625 334.046875 357.582031 328.796875 359.792969 Z M 325.269531 337.601562 C 309.820312 335.710938 303.398438 333.753906 290.628906 324.421875 C 283.117188 318.929688 274.949219 314.207031 265.089844 321.863281 C 257.210938 327.980469 242.355469 356.167969 241.617188 373.132812 C 241.398438 378.121094 242.441406 381.722656 244.726562 383.832031 C 246.507812 385.488281 249.039062 386.347656 251.796875 386.347656 C 253.488281 386.347656 255.269531 386.023438 257.015625 385.359375 C 260.269531 384.121094 263.082031 382.007812 265.804688 379.957031 C 266.398438 379.507812 266.988281 379.058594 267.585938 378.625 C 280.148438 369.433594 295.628906 363.949219 311.175781 363.179688 C 312.332031 363.121094 313.496094 363.085938 314.664062 363.058594 C 319.566406 362.910156 324.636719 362.765625 329.230469 360.832031 C 334.949219 358.421875 339.835938 352.015625 337.769531 345.871094 C 336.03125 340.6875 330.171875 338.203125 325.269531 337.601562 " fill-opacity="1" fill-rule="nonzero"/><path fill="#1d1d1b" d="M 286.691406 354.210938 C 284.265625 356.40625 280.425781 357.230469 276.664062 356.367188 C 273.566406 355.660156 270.777344 353.421875 269.882812 350.929688 C 269.265625 349.199219 269.574219 347.515625 270.808594 345.90625 C 272.476562 343.738281 276.5625 342.675781 279.484375 342.066406 C 280.164062 341.925781 280.890625 341.851562 281.628906 341.851562 C 284.089844 341.851562 286.699219 342.703125 288.183594 344.816406 C 290.050781 347.488281 289.363281 351.789062 286.691406 354.210938 Z M 279.257812 340.96875 C 276.15625 341.613281 271.816406 342.757812 269.917969 345.222656 C 268.457031 347.125 268.078125 349.226562 268.824219 351.3125 C 269.84375 354.140625 272.960938 356.671875 276.40625 357.464844 C 277.472656 357.703125 278.546875 357.828125 279.597656 357.828125 C 282.605469 357.828125 285.449219 356.847656 287.441406 355.042969 C 290.570312 352.214844 291.316406 347.339844 289.105469 344.175781 C 286.882812 341.003906 282.558594 340.277344 279.257812 340.96875 " fill-opacity="1" fill-rule="nonzero"/><path fill="#1d1d1b" d="M 435.296875 136.277344 C 434.738281 137.445312 433.851562 138.1875 432.589844 138.550781 C 425.78125 140.523438 410.492188 130.839844 401.359375 125.0625 C 398.597656 123.316406 396.421875 121.9375 395.015625 121.207031 C 392.851562 120.078125 390.367188 118.496094 390.371094 116.183594 C 390.378906 113.335938 394.078125 111.894531 397.503906 111.757812 C 397.699219 111.75 397.902344 111.75 398.113281 111.75 C 406.304688 111.75 428.414062 117.398438 434.644531 126.859375 C 436.625 129.863281 436.839844 133.03125 435.296875 136.277344 Z M 397.460938 110.636719 C 393.511719 110.792969 389.253906 112.59375 389.246094 116.179688 C 389.238281 119.097656 392.046875 120.929688 394.496094 122.203125 C 395.859375 122.910156 398.019531 124.277344 400.757812 126.011719 C 409.695312 131.667969 422.75 139.933594 430.574219 139.929688 C 431.414062 139.929688 432.195312 139.835938 432.902344 139.628906 C 434.46875 139.179688 435.617188 138.21875 436.308594 136.765625 C 438.039062 133.132812 437.796875 129.59375 435.585938 126.238281 C 428.867188 116.039062 405.507812 110.308594 397.460938 110.636719 " fill-opacity="1" fill-rule="nonzero"/><path fill="#1d1d1b" d="M 545.855469 323.039062 C 545.316406 326.214844 541.589844 327.941406 538.410156 327.558594 C 523.371094 325.742188 504.058594 312.339844 494.789062 300.96875 C 485.386719 289.445312 480.183594 278 477.914062 263.867188 C 477.5 261.277344 476.980469 258.054688 478.171875 255.40625 C 478.84375 253.90625 480.234375 252.90625 482.304688 252.425781 C 483.207031 252.21875 484.179688 252.121094 485.183594 252.121094 C 488.953125 252.121094 493.101562 253.457031 495.070312 255.101562 C 497.871094 257.445312 499.527344 260.917969 500.527344 263.324219 C 502.113281 267.152344 503.300781 271.324219 504.453125 275.359375 C 506.972656 284.210938 509.578125 293.355469 516.558594 299.421875 C 519.152344 301.675781 522.199219 303.335938 525.148438 304.941406 C 527.695312 306.328125 530.335938 307.765625 532.628906 309.566406 C 533.390625 310.164062 534.40625 310.855469 535.582031 311.664062 C 539.933594 314.648438 546.519531 319.160156 545.855469 323.039062 Z M 533.320312 308.679688 C 530.953125 306.820312 528.277344 305.363281 525.683594 303.953125 C 522.792969 302.378906 519.792969 300.746094 517.296875 298.570312 C 510.5625 292.726562 508.117188 284.144531 505.53125 275.050781 C 504.375 270.984375 503.175781 266.785156 501.5625 262.894531 C 500.519531 260.378906 498.785156 256.742188 495.789062 254.238281 C 493.09375 251.988281 486.792969 250.234375 482.050781 251.328125 C 479.652344 251.886719 477.953125 253.132812 477.144531 254.945312 C 475.820312 257.902344 476.367188 261.308594 476.804688 264.042969 C 479.078125 278.191406 484.515625 290.148438 493.914062 301.679688 C 503.324219 313.21875 522.957031 326.820312 538.273438 328.671875 C 538.601562 328.714844 538.9375 328.734375 539.269531 328.734375 C 542.699219 328.734375 546.378906 326.699219 546.96875 323.230469 C 547.742188 318.636719 541.082031 314.070312 536.21875 310.734375 C 535.054688 309.941406 534.058594 309.257812 533.320312 308.679688 " fill-opacity="1" fill-rule="nonzero"/><path fill="#1d1d1b" d="M 8.5 112.476562 C 9.453125 110.742188 11.253906 109.339844 13.199219 108.816406 C 13.875 108.636719 14.523438 108.5625 15.167969 108.5625 C 16.570312 108.5625 17.925781 108.914062 19.339844 109.28125 C 21.003906 109.71875 22.722656 110.160156 24.511719 109.953125 C 27.082031 109.648438 30.085938 107.253906 32.726562 105.136719 C 33.707031 104.359375 34.628906 103.625 35.402344 103.105469 C 37.472656 101.714844 39.867188 100.28125 42.125 100.9375 C 43.652344 101.378906 44.933594 102.816406 45.472656 104.6875 C 45.992188 106.484375 45.832031 108.410156 45.589844 110.222656 C 44.832031 115.773438 43.121094 121.097656 40.507812 126.050781 C 38.980469 128.945312 36.425781 132.414062 32.921875 132.535156 C 30.808594 132.617188 28.847656 131.46875 26.691406 130.085938 L 12.6875 121.109375 C 10.585938 119.761719 8.644531 118.378906 8.007812 116.335938 C 7.519531 114.777344 8.007812 113.375 8.5 112.476562 Z M 12.082031 122.054688 L 26.085938 131.035156 C 27.914062 132.207031 30.1875 133.664062 32.730469 133.664062 C 32.808594 133.664062 32.886719 133.660156 32.960938 133.660156 C 36.160156 133.550781 39.113281 131.101562 41.5 126.578125 C 44.179688 121.507812 45.925781 116.054688 46.703125 110.371094 C 46.953125 108.53125 47.128906 106.378906 46.550781 104.375 C 45.910156 102.136719 44.332031 100.40625 42.433594 99.855469 C 39.722656 99.070312 37.058594 100.636719 34.773438 102.167969 C 33.964844 102.714844 33.027344 103.464844 32.03125 104.265625 C 29.625 106.183594 26.632812 108.570312 24.382812 108.835938 C 22.804688 109.023438 21.257812 108.621094 19.621094 108.195312 C 17.515625 107.644531 15.332031 107.078125 12.910156 107.734375 C 10.679688 108.328125 8.609375 109.941406 7.515625 111.933594 C 6.65625 113.496094 6.453125 115.136719 6.933594 116.667969 C 7.683594 119.078125 9.800781 120.59375 12.082031 122.054688 " fill-opacity="1" fill-rule="nonzero"/><path fill="#1d1d1b" d="M 497.261719 541.152344 C 495.140625 540.476562 488.246094 537.878906 488.5625 532.886719 C 488.699219 530.710938 490.210938 528.808594 493.050781 527.226562 C 494.582031 526.375 496.230469 525.605469 497.816406 524.863281 C 499.113281 524.257812 500.449219 523.636719 501.738281 522.957031 C 508.351562 519.503906 515.246094 516.425781 522.230469 513.816406 C 526.910156 512.074219 531.945312 510.429688 537.0625 510.222656 C 537.328125 510.207031 537.597656 510.203125 537.863281 510.203125 C 545.746094 510.203125 555.132812 514.789062 557.160156 522.558594 C 558.71875 528.539062 555.273438 534.566406 551.164062 537.886719 C 547.28125 541.019531 542.0625 543.003906 534.734375 544.117188 C 522.253906 546.023438 509.289062 545 497.261719 541.152344 Z M 551.9375 538.84375 C 556.355469 535.277344 560.050781 528.761719 558.351562 522.253906 C 556.097656 513.617188 545.558594 508.652344 537.011719 508.992188 C 531.722656 509.203125 526.574219 510.878906 521.800781 512.664062 C 514.765625 515.289062 507.824219 518.382812 501.167969 521.867188 C 499.902344 522.527344 498.578125 523.148438 497.296875 523.75 C 495.6875 524.5 494.023438 525.273438 492.449219 526.152344 C 489.21875 527.949219 487.496094 530.1875 487.328125 532.808594 C 486.96875 538.527344 493.886719 541.375 496.882812 542.324219 C 505.101562 544.957031 513.742188 546.285156 522.378906 546.285156 C 526.578125 546.285156 530.777344 545.96875 534.921875 545.339844 C 542.476562 544.183594 547.878906 542.121094 551.9375 538.84375 " fill-opacity="1" fill-rule="nonzero"/><path fill="#1d1d1b" d="M 345.71875 536.621094 C 344.3125 537.105469 342.753906 537.007812 341.25 536.914062 L 325.238281 535.914062 C 322.890625 535.769531 320.457031 535.621094 318.210938 534.882812 C 315.765625 534.085938 313.890625 532.652344 312.925781 530.847656 C 311.832031 528.792969 312.078125 526.25 313.511719 524.808594 C 314.574219 523.742188 316.019531 523.363281 317.605469 523.363281 C 319.136719 523.363281 320.796875 523.714844 322.378906 524.125 L 326.425781 525.195312 C 331.992188 526.660156 337.75 528.179688 343.449219 529.519531 C 345.835938 530.082031 348.238281 532.105469 348.484375 533.765625 C 348.707031 535.273438 347.105469 536.152344 345.71875 536.621094 Z M 343.730469 528.320312 C 338.046875 526.984375 332.300781 525.464844 326.742188 524 L 322.6875 522.933594 C 319.136719 522 315.164062 521.394531 312.640625 523.9375 C 310.832031 525.761719 310.492188 528.910156 311.839844 531.429688 C 312.957031 533.515625 315.082031 535.15625 317.824219 536.054688 C 320.226562 536.84375 322.738281 537 325.164062 537.148438 L 341.167969 538.144531 C 341.785156 538.179688 342.429688 538.222656 343.089844 538.222656 C 344.09375 538.222656 345.128906 538.128906 346.117188 537.792969 C 349.605469 536.601562 349.863281 534.640625 349.703125 533.585938 C 349.347656 531.191406 346.328125 528.929688 343.730469 528.320312 " fill-opacity="1" fill-rule="nonzero"/><path fill="#1d1d1b" d="M 23.695312 0 C 16.027344 4.90625 8.109375 9.230469 0 12.957031 L 0 14.175781 C 8.957031 10.117188 17.625 5.367188 25.898438 0 L 23.695312 0 " fill-opacity="1" fill-rule="nonzero"/><path fill="#1d1d1b" d="M 552.785156 81.828125 C 546.660156 81.636719 541.25 79.882812 536.019531 78.1875 C 531.996094 76.882812 526.757812 76.828125 520.449219 78.015625 C 509.90625 80.011719 499.703125 89.519531 501.320312 100.496094 C 502.902344 111.207031 513.851562 116.761719 523.519531 121.660156 C 524.972656 122.398438 526.410156 123.125 527.792969 123.859375 C 542.707031 131.765625 554.773438 144.433594 562 159.664062 L 562 157.117188 C 554.582031 142.589844 542.769531 130.527344 528.320312 122.867188 C 526.933594 122.128906 525.488281 121.402344 524.03125 120.660156 C 514.148438 115.648438 503.929688 110.464844 502.4375 100.335938 C 500.910156 89.996094 510.625 81.019531 520.660156 79.125 C 523.558594 78.574219 526.269531 78.296875 528.71875 78.296875 C 531.363281 78.296875 533.707031 78.617188 535.675781 79.253906 C 540.976562 80.972656 546.460938 82.75 552.75 82.953125 C 555.777344 83.046875 558.875 82.820312 562 82.292969 L 562 81.152344 C 558.886719 81.6875 555.804688 81.925781 552.785156 81.828125 " fill-opacity="1" fill-rule="nonzero"/><path fill="#1d1d1b" d="M 481.023438 69.535156 C 478.820312 70.144531 476.710938 70.773438 474.671875 71.378906 C 464.953125 74.265625 456.566406 76.761719 445.347656 74.914062 C 433.527344 72.96875 422.242188 68.050781 411.332031 63.289062 C 410.0625 62.738281 408.796875 62.1875 407.539062 61.644531 C 389.871094 54.007812 364.132812 45.296875 344.652344 57.710938 C 340.796875 60.164062 337.3125 63.394531 333.945312 66.523438 C 327.90625 72.125 322.203125 77.414062 314.53125 78.644531 C 300.761719 80.851562 288.847656 68.238281 283.15625 54.753906 C 281.453125 50.71875 280.011719 46.441406 278.617188 42.300781 C 275.414062 32.789062 272.105469 22.957031 265.382812 15.339844 C 260.507812 9.921875 253.179688 4.648438 245.0625 0 L 242.785156 0 C 251.480469 4.820312 259.402344 10.375 264.542969 16.085938 C 271.113281 23.535156 274.382812 33.253906 277.554688 42.65625 C 278.953125 46.816406 280.402344 51.121094 282.121094 55.191406 C 287.523438 67.992188 298.441406 80.023438 311.375 80.023438 C 312.472656 80.023438 313.585938 79.9375 314.710938 79.753906 C 322.71875 78.472656 328.8125 72.8125 334.710938 67.34375 C 338.039062 64.253906 341.484375 61.058594 345.253906 58.660156 C 364.289062 46.53125 389.660156 55.144531 407.089844 62.675781 C 408.355469 63.21875 409.613281 63.769531 410.882812 64.324219 C 421.855469 69.109375 433.207031 74.058594 445.160156 76.023438 C 456.644531 77.917969 465.144531 75.382812 474.988281 72.457031 C 477.027344 71.851562 479.128906 71.226562 481.324219 70.617188 C 495.066406 66.828125 509.511719 65.808594 523.480469 64.808594 C 536.207031 63.910156 549.335938 62.953125 562 59.9375 L 562 58.78125 C 549.347656 61.824219 536.164062 62.785156 523.398438 63.691406 C 509.375 64.6875 494.871094 65.71875 481.023438 69.535156 " fill-opacity="1" fill-rule="nonzero"/><path fill="#1d1d1b" d="M 441.335938 24.710938 C 433.566406 22.746094 425.710938 20.222656 418.109375 17.78125 C 401.492188 12.4375 384.382812 6.933594 366.929688 6.933594 C 364.558594 6.933594 362.175781 7.039062 359.785156 7.253906 C 356.246094 7.578125 352.664062 8.164062 349.195312 8.730469 C 341.761719 9.941406 334.070312 11.195312 326.632812 9.875 C 318.601562 8.449219 311.195312 4.035156 304.613281 0 L 302.300781 0 C 302.59375 0.179688 302.886719 0.367188 303.175781 0.550781 C 310.054688 4.769531 317.835938 9.550781 326.417969 11.074219 C 334.054688 12.429688 341.855469 11.15625 349.394531 9.929688 C 352.835938 9.371094 356.402344 8.785156 359.894531 8.464844 C 379.566406 6.667969 398.976562 12.902344 417.738281 18.941406 C 425.355469 21.386719 433.230469 23.921875 441.039062 25.890625 C 455.070312 29.429688 469.664062 31.203125 484.367188 31.203125 C 497.425781 31.203125 510.578125 29.804688 523.480469 26.996094 C 536.640625 24.136719 549.582031 19.804688 562 14.175781 L 562 12.957031 C 523.851562 30.492188 481.539062 34.855469 441.335938 24.710938 " fill-opacity="1" fill-rule="nonzero"/><path fill="#1d1d1b" d="M 493.433594 8.574219 C 508.179688 8.574219 522.921875 4.84375 537.179688 0 L 533.265625 0 C 514.65625 6.027344 495.300781 9.792969 476.34375 5.484375 C 470.722656 4.207031 465.257812 2.21875 459.914062 0 L 456.738281 0 C 462.984375 2.683594 469.40625 5.171875 476.070312 6.6875 C 481.839844 7.996094 487.636719 8.574219 493.433594 8.574219 " fill-opacity="1" fill-rule="nonzero"/><path fill="#1d1d1b" d="M 411.75 38.628906 C 405.695312 36.925781 399.578125 34.746094 393.664062 32.640625 C 380.535156 27.964844 367.007812 23.144531 353.085938 23.144531 C 351.527344 23.144531 349.96875 23.203125 348.402344 23.332031 C 343.585938 23.722656 338.679688 24.75 333.9375 25.746094 C 324.050781 27.824219 314.710938 29.78125 305.675781 26.640625 C 297.070312 23.648438 290.722656 16.496094 284.585938 9.574219 C 283.546875 8.402344 282.515625 7.234375 281.46875 6.09375 C 279.566406 4.003906 277.59375 1.976562 275.578125 0 L 273.972656 0 C 276.261719 2.207031 278.488281 4.492188 280.640625 6.855469 C 281.679688 7.992188 282.707031 9.15625 283.746094 10.324219 C 289.980469 17.347656 296.425781 24.613281 305.308594 27.703125 C 314.636719 30.949219 324.570312 28.863281 334.171875 26.847656 C 338.878906 25.859375 343.746094 24.835938 348.492188 24.453125 C 363.824219 23.203125 378.804688 28.539062 393.289062 33.699219 C 399.21875 35.808594 405.351562 37.996094 411.441406 39.707031 C 427.703125 44.285156 444.691406 45.722656 461.53125 45.722656 C 471.316406 45.722656 481.058594 45.238281 490.582031 44.601562 C 514.171875 43.019531 538.875 40.359375 562 32.507812 L 562 31.316406 C 538.886719 39.222656 514.140625 41.890625 490.507812 43.476562 C 464.703125 45.207031 437.296875 45.816406 411.75 38.628906 " fill-opacity="1" fill-rule="nonzero"/><path fill="#1d1d1b" d="M 522.566406 149.457031 C 515.257812 139.191406 507.226562 128.480469 496.609375 120.253906 C 474.726562 103.308594 448.144531 91.585938 426.777344 82.15625 C 410.761719 75.09375 390.832031 66.308594 370.59375 67.949219 C 351.664062 69.496094 330.933594 83.714844 330.464844 103.996094 C 330.179688 116.269531 337.71875 129.191406 350.625 138.558594 C 358.246094 144.085938 366.910156 148.136719 375.289062 152.050781 C 379.160156 153.863281 383.164062 155.734375 387.007812 157.722656 C 405.980469 167.554688 416.550781 179.4375 419.332031 194.046875 C 421.148438 203.597656 418.933594 212.730469 416.785156 221.5625 C 415.238281 227.921875 413.644531 234.5 413.503906 241.277344 C 413.246094 253.671875 419.28125 264.484375 425.128906 274.9375 C 425.863281 276.257812 426.601562 277.578125 427.328125 278.902344 C 433.984375 291.054688 440.667969 303.199219 447.351562 315.34375 L 457.160156 333.167969 C 462.285156 342.496094 468.09375 353.058594 475.585938 362.195312 C 483.3125 371.613281 491.921875 373.773438 502.824219 376.507812 C 503.867188 376.773438 504.941406 377.039062 506.039062 377.320312 C 519.042969 380.664062 532.5625 382.679688 545.632812 384.628906 C 551.046875 385.429688 556.523438 386.257812 562 387.175781 L 562 386.03125 C 556.578125 385.128906 551.15625 384.3125 545.800781 383.515625 C 532.753906 381.570312 519.265625 379.5625 506.3125 376.234375 C 505.214844 375.953125 504.144531 375.683594 503.097656 375.421875 C 492.394531 372.734375 483.945312 370.613281 476.453125 361.480469 C 469.027344 352.425781 463.246094 341.90625 458.148438 332.628906 L 448.335938 314.800781 C 441.652344 302.660156 434.972656 290.515625 428.308594 278.355469 C 427.585938 277.039062 426.847656 275.714844 426.105469 274.386719 C 420.339844 264.066406 414.375 253.390625 414.628906 241.300781 C 414.765625 234.644531 416.347656 228.128906 417.878906 221.828125 C 420.050781 212.878906 422.300781 203.625 420.433594 193.835938 C 417.589844 178.867188 406.824219 166.726562 387.527344 156.726562 C 383.660156 154.726562 379.648438 152.851562 375.761719 151.035156 C 367.433594 147.140625 358.820312 143.113281 351.289062 137.652344 C 338.675781 128.496094 331.3125 115.925781 331.589844 104.023438 C 332.046875 84.367188 352.242188 70.574219 370.6875 69.070312 C 372.335938 68.933594 373.980469 68.871094 375.617188 68.871094 C 393.871094 68.871094 411.734375 76.753906 426.324219 83.1875 C 447.632812 92.585938 474.152344 104.28125 495.921875 121.140625 C 506.417969 129.273438 514.394531 139.910156 521.65625 150.105469 C 526.945312 157.535156 532.667969 164.640625 538.203125 171.507812 C 546.855469 182.25 555.238281 192.6875 562 204.128906 L 562 201.90625 C 555.382812 191.050781 547.347656 181.070312 539.078125 170.804688 C 533.554688 163.945312 527.839844 156.859375 522.566406 149.457031 " fill-opacity="1" fill-rule="nonzero"/><path fill="#1d1d1b" d="M 536.035156 280.183594 C 533.269531 276.460938 530.621094 272.503906 528.066406 268.679688 C 521.691406 259.160156 515.105469 249.316406 506.023438 242.070312 C 502.824219 239.515625 499.265625 237.242188 495.828125 235.042969 C 488.722656 230.5 481.367188 225.796875 477.167969 218.535156 C 472.746094 210.878906 473.078125 203.351562 473.394531 196.074219 C 473.425781 195.371094 473.453125 194.675781 473.480469 193.976562 C 473.667969 188.972656 473.691406 183.632812 471.738281 178.230469 C 470.332031 174.355469 466.84375 171.050781 462.832031 169.8125 C 459.8125 168.875 456.890625 169.265625 454.605469 170.914062 C 449.058594 174.894531 449.882812 182.730469 451.589844 190.601562 C 455.675781 209.414062 454.84375 227.320312 453.332031 243.863281 C 452.027344 258.132812 457.210938 271.367188 461.863281 281.296875 C 473.542969 306.207031 494.484375 326.105469 519.324219 335.890625 C 532.953125 341.265625 547.613281 343.171875 562 344.671875 L 562 343.542969 C 547.726562 342.050781 533.195312 340.152344 519.734375 334.847656 C 495.160156 325.160156 474.441406 305.46875 462.882812 280.820312 C 458.285156 271.015625 453.175781 257.972656 454.453125 243.96875 C 455.972656 227.332031 456.804688 209.328125 452.6875 190.363281 C 451.0625 182.867188 450.246094 175.433594 455.261719 171.824219 C 456.539062 170.90625 458.046875 170.441406 459.675781 170.441406 C 460.589844 170.441406 461.539062 170.589844 462.503906 170.886719 C 466.125 172.007812 469.414062 175.113281 470.679688 178.613281 C 472.566406 183.824219 472.542969 189.039062 472.355469 193.933594 C 472.332031 194.628906 472.300781 195.324219 472.269531 196.019531 C 471.945312 203.460938 471.609375 211.152344 476.199219 219.097656 C 480.53125 226.597656 488 231.371094 495.222656 235.988281 C 498.640625 238.175781 502.167969 240.429688 505.320312 242.945312 C 514.265625 250.085938 520.808594 259.855469 527.128906 269.308594 C 529.695312 273.140625 532.351562 277.105469 535.132812 280.855469 C 542.382812 290.609375 551.414062 299.964844 562 308.730469 L 562 307.257812 C 551.796875 298.726562 543.066406 289.644531 536.035156 280.183594 " fill-opacity="1" fill-rule="nonzero"/><path fill="#1d1d1b" d="M 541.863281 228.882812 C 538.308594 225.085938 534.386719 221.546875 530.59375 218.121094 C 526.101562 214.0625 521.457031 209.867188 517.421875 205.246094 C 508.835938 195.40625 502.828125 183.453125 497.019531 171.898438 C 495.101562 168.082031 493.121094 164.140625 491.074219 160.332031 C 478.433594 136.792969 457.308594 120.035156 440.324219 108.0625 C 417.433594 91.929688 391.953125 88.222656 372.164062 98.144531 C 369.398438 99.527344 366.96875 101.238281 364.945312 103.234375 C 362.492188 105.644531 360.761719 108.347656 359.796875 111.265625 C 358.589844 114.910156 358.742188 118.734375 360.207031 121.742188 C 362.503906 126.46875 370.203125 129.65625 375.828125 131.988281 C 376.761719 132.375 377.621094 132.730469 378.367188 133.058594 C 381.324219 134.359375 384.363281 135.625 387.296875 136.851562 C 395.875 140.4375 404.753906 144.148438 412.765625 149.101562 C 421.382812 154.429688 432.554688 163.605469 436.84375 177.042969 C 440.25 187.691406 438.765625 199.210938 437.328125 210.355469 C 437 212.914062 436.660156 215.558594 436.382812 218.144531 C 433.363281 246.652344 438.09375 274.0625 450.070312 297.414062 C 462.902344 322.433594 484.359375 342.085938 508.949219 351.320312 C 525.835938 357.667969 544.121094 359.300781 562 360.550781 L 562 359.421875 C 544.226562 358.1875 526.058594 356.550781 509.339844 350.269531 C 485.015625 341.128906 463.777344 321.675781 451.070312 296.898438 C 439.195312 273.746094 434.5 246.550781 437.503906 218.261719 C 437.777344 215.691406 438.113281 213.050781 438.445312 210.5 C 439.894531 199.234375 441.394531 187.585938 437.917969 176.707031 C 433.523438 162.933594 422.136719 153.574219 413.355469 148.148438 C 405.269531 143.148438 396.355469 139.421875 387.726562 135.816406 C 384.800781 134.589844 381.769531 133.324219 378.820312 132.03125 C 378.0625 131.695312 377.199219 131.335938 376.265625 130.949219 C 371.113281 128.816406 363.328125 125.589844 361.21875 121.25 C 359.882812 118.503906 359.75 114.992188 360.867188 111.617188 C 361.769531 108.871094 363.40625 106.320312 365.730469 104.035156 C 367.671875 102.121094 370.007812 100.480469 372.664062 99.148438 C 379.828125 95.558594 387.757812 93.792969 396.046875 93.792969 C 410.222656 93.792969 425.449219 98.957031 439.675781 108.980469 C 456.5625 120.882812 477.554688 137.53125 490.082031 160.859375 C 492.125 164.65625 494.097656 168.597656 496.011719 172.402344 C 501.851562 184.023438 507.894531 196.039062 516.574219 205.980469 C 520.652344 210.652344 525.324219 214.871094 529.84375 218.957031 C 533.613281 222.363281 537.519531 225.890625 541.042969 229.652344 C 550.835938 240.101562 555.175781 253.726562 559.375 266.898438 C 560.226562 269.570312 561.085938 272.265625 562 274.957031 L 562 271.378906 C 561.472656 269.769531 560.957031 268.15625 560.445312 266.554688 C 556.210938 253.265625 551.828125 239.523438 541.863281 228.882812 " fill-opacity="1" fill-rule="nonzero"/><path fill="#1d1d1b" d="M 498.410156 397.183594 C 490.5 396.9375 482.199219 397.035156 475.355469 401.140625 C 466.867188 406.230469 466.273438 413.242188 465.640625 420.671875 C 465.367188 423.839844 465.089844 427.121094 464.175781 430.363281 C 461.5 439.859375 453.285156 450.113281 443.25 456.488281 C 423.191406 469.226562 396.882812 466.9375 378.957031 460.550781 C 377.09375 459.886719 375.222656 459.203125 373.351562 458.519531 C 360.488281 453.796875 347.179688 448.917969 333.484375 450.152344 C 323.027344 451.097656 313.289062 455.5625 303.871094 459.878906 C 299.835938 461.726562 295.664062 463.640625 291.492188 465.242188 C 262.453125 476.429688 220.359375 481.066406 196.554688 464.796875 C 182.917969 455.46875 171.289062 449.515625 155.492188 448.640625 C 144.628906 448.027344 134.914062 451.371094 128.847656 457.800781 C 122.125 464.933594 118.738281 474.050781 119.050781 484.175781 C 119.453125 497.203125 125.875 510.769531 136.230469 520.476562 C 143.644531 527.425781 151.59375 529.410156 160.011719 531.503906 C 163.21875 532.300781 166.53125 533.128906 169.960938 534.25 C 179.144531 537.269531 188.421875 540.535156 197.394531 543.695312 C 203.714844 545.921875 210.257812 548.226562 216.71875 550.421875 C 224.882812 553.203125 234.210938 557.246094 242.785156 562 L 245.0625 562 C 235.957031 556.78125 225.847656 552.34375 217.078125 549.359375 C 210.628906 547.164062 204.089844 544.863281 197.765625 542.632812 C 188.792969 539.472656 179.511719 536.199219 170.3125 533.183594 C 166.84375 532.046875 163.507812 531.214844 160.285156 530.410156 C 151.652344 528.261719 144.195312 526.40625 137 519.65625 C 126.859375 510.152344 120.566406 496.875 120.175781 484.140625 C 119.871094 474.320312 123.152344 465.480469 129.664062 458.574219 C 135.046875 452.867188 143.449219 449.691406 152.988281 449.691406 C 153.796875 449.691406 154.613281 449.714844 155.433594 449.757812 C 170.964844 450.625 182.4375 456.507812 195.921875 465.726562 C 220.0625 482.222656 262.59375 477.585938 291.898438 466.296875 C 296.097656 464.679688 300.289062 462.753906 304.339844 460.898438 C 313.671875 456.621094 323.320312 452.199219 333.585938 451.273438 C 347.03125 450.0625 360.214844 454.898438 372.964844 459.570312 C 374.839844 460.257812 376.710938 460.945312 378.578125 461.609375 C 396.753906 468.085938 423.449219 470.390625 443.851562 457.4375 C 454.109375 450.921875 462.507812 440.414062 465.257812 430.667969 C 466.203125 427.324219 466.480469 423.988281 466.757812 420.761719 C 467.390625 413.324219 467.941406 406.902344 475.933594 402.101562 C 482.515625 398.15625 490.628906 398.0625 498.375 398.308594 C 506.890625 398.578125 515.261719 399.035156 523.269531 399.675781 C 535.96875 400.6875 549.082031 402.25 562 404.570312 L 562 403.433594 C 549.109375 401.125 536.03125 399.566406 523.363281 398.554688 C 515.335938 397.914062 506.941406 397.453125 498.410156 397.183594 " fill-opacity="1" fill-rule="nonzero"/><path fill="#1d1d1b" d="M 488.921875 483.507812 C 474.894531 493.164062 460.382812 503.148438 443.917969 507.828125 C 433.472656 510.792969 425.929688 510.976562 415.097656 508.519531 L 381.203125 500.835938 C 358.292969 495.640625 334.617188 490.28125 310.621094 490.988281 C 297.660156 491.378906 266.597656 494.09375 258.066406 510.820312 C 252.699219 521.347656 256.414062 534.1875 266.523438 540.042969 C 274.78125 544.824219 283.027344 549.988281 291.003906 554.976562 C 294.765625 557.332031 298.527344 559.679688 302.300781 562 L 304.613281 562 C 304.34375 561.839844 304.078125 561.671875 303.816406 561.511719 C 299.753906 559.015625 295.699219 556.480469 291.652344 553.945312 C 283.664062 548.945312 275.410156 543.777344 267.132812 538.984375 C 257.582031 533.457031 254.078125 521.324219 259.152344 511.371094 C 267.386719 495.226562 297.914062 492.589844 310.65625 492.203125 C 334.5 491.488281 358.101562 496.84375 380.933594 502.019531 L 414.828125 509.707031 C 425.886719 512.214844 433.582031 512.03125 444.253906 508.996094 C 460.90625 504.261719 475.5 494.222656 489.617188 484.515625 C 493.082031 482.125 496.667969 479.660156 500.214844 477.320312 C 517.25 466.082031 540.050781 454.53125 562 454.289062 L 562 453.074219 C 539.757812 453.320312 516.738281 464.964844 499.546875 476.304688 C 495.988281 478.652344 492.394531 481.121094 488.921875 483.507812 " fill-opacity="1" fill-rule="nonzero"/><path fill="#1d1d1b" d="M 533.269531 562 L 537.175781 562 C 540.417969 560.898438 543.625 559.742188 546.804688 558.558594 C 551.832031 556.6875 557.003906 554.664062 562 552.199219 L 562 550.828125 C 556.882812 553.394531 551.550781 555.476562 546.378906 557.402344 C 542.058594 559.011719 537.683594 560.570312 533.269531 562 " fill-opacity="1" fill-rule="nonzero"/><path fill="#1d1d1b" d="M 507.96875 500.238281 C 502.578125 503.351562 497.199219 506.761719 491.996094 510.0625 C 477.925781 518.988281 463.375 528.222656 447.136719 532.4375 C 429.859375 536.929688 410.140625 536.082031 385.089844 529.773438 C 376.917969 527.714844 368.699219 525.25 360.746094 522.871094 C 348.871094 519.308594 336.589844 515.625 324.203125 513.21875 C 319.550781 512.316406 314.144531 511.441406 308.929688 512.492188 C 303.238281 513.636719 298.640625 517.15625 296.933594 521.675781 C 294.660156 527.691406 297.628906 534.171875 301.574219 537.929688 C 306.144531 542.273438 312.3125 544.222656 317.179688 545.429688 C 335 549.863281 353.804688 548.820312 371.988281 547.8125 C 391.269531 546.742188 411.203125 545.636719 429.808594 551.128906 C 436.90625 553.222656 443.828125 556.300781 450.523438 559.269531 C 452.578125 560.183594 454.644531 561.101562 456.738281 562 L 459.914062 562 C 456.910156 560.757812 453.945312 559.445312 451.023438 558.144531 C 444.292969 555.15625 437.332031 552.0625 430.152344 549.945312 C 418.988281 546.652344 407.382812 545.703125 395.734375 545.703125 C 387.777344 545.703125 379.792969 546.144531 371.921875 546.582031 C 353.828125 547.585938 335.113281 548.625 317.472656 544.234375 C 312.757812 543.058594 306.785156 541.183594 302.425781 537.035156 C 298.773438 533.558594 296.011719 527.601562 298.085938 522.113281 C 299.648438 517.984375 303.894531 514.761719 309.171875 513.699219 C 314.171875 512.695312 319.429688 513.550781 323.96875 514.433594 C 336.296875 516.824219 348.546875 520.496094 360.394531 524.046875 C 368.355469 526.4375 376.589844 528.910156 384.785156 530.972656 C 410.050781 537.328125 429.957031 538.175781 447.445312 533.636719 C 463.871094 529.371094 478.503906 520.082031 492.65625 511.105469 C 497.847656 507.8125 503.214844 504.410156 508.585938 501.304688 C 527.34375 490.46875 543.363281 485.453125 557.5 485.972656 C 559.019531 486.03125 560.519531 486.195312 562 486.441406 L 562 485.191406 C 560.535156 484.957031 559.050781 484.796875 557.546875 484.742188 C 543.117188 484.207031 526.9375 489.28125 507.96875 500.238281 " fill-opacity="1" fill-rule="nonzero"/><path fill="#1d1d1b" d="M 525.980469 430.183594 C 509.707031 435.8125 495.367188 446.25 481.503906 456.339844 C 465.382812 468.070312 448.714844 480.199219 429.1875 484.484375 C 410.71875 488.535156 391.566406 485.148438 373.039062 481.871094 C 358.957031 479.378906 344.386719 476.808594 330.023438 477.414062 C 312.945312 478.144531 296.304688 483.367188 280.21875 488.417969 C 275.65625 489.847656 270.945312 491.328125 266.300781 492.679688 C 240.125 500.304688 220.039062 501.066406 201.195312 495.167969 C 194.398438 493.042969 188.039062 489.238281 181.886719 485.554688 C 172.9375 480.207031 163.6875 474.675781 152.714844 473.945312 C 147.640625 473.605469 143.417969 475.671875 140.8125 479.75 C 137.167969 485.453125 137.21875 494.1875 140.9375 500.984375 C 145.078125 508.558594 153.296875 514.4375 164.085938 517.53125 C 170.632812 519.410156 177.503906 520.214844 184.144531 520.992188 C 186.910156 521.316406 189.761719 521.652344 192.554688 522.058594 C 223.1875 526.53125 251.761719 540.605469 273.976562 562 L 275.578125 562 C 253.082031 539.988281 223.964844 525.511719 192.71875 520.949219 C 189.914062 520.535156 187.046875 520.203125 184.273438 519.875 C 177.679688 519.105469 170.855469 518.304688 164.398438 516.453125 C 153.898438 513.4375 145.917969 507.753906 141.921875 500.445312 C 138.398438 493.988281 138.328125 485.730469 141.761719 480.355469 C 143.441406 477.726562 146.6875 474.679688 152.640625 475.066406 C 163.339844 475.777344 172.472656 481.238281 181.304688 486.519531 C 187.515625 490.234375 193.9375 494.074219 200.859375 496.242188 C 219.929688 502.207031 240.210938 501.445312 266.613281 493.761719 C 271.269531 492.40625 275.992188 490.925781 280.550781 489.488281 C 296.574219 484.460938 313.140625 479.261719 330.070312 478.539062 C 344.3125 477.925781 358.820312 480.492188 372.847656 482.976562 C 391.476562 486.273438 410.738281 489.683594 429.429688 485.582031 C 449.1875 481.242188 465.949219 469.046875 482.164062 457.25 C 495.960938 447.207031 510.230469 436.824219 526.34375 431.246094 C 537.726562 427.308594 549.992188 426.070312 562 427.300781 L 562 426.171875 C 549.863281 424.945312 537.472656 426.207031 525.980469 430.183594 " fill-opacity="1" fill-rule="nonzero"/><path fill="#1d1d1b" d="M 144.152344 540.84375 C 128.058594 540.054688 114.179688 549.359375 104.917969 562 L 106.308594 562 C 115.359375 549.960938 128.695312 541.191406 144.097656 541.960938 C 154.628906 542.484375 164.632812 547.503906 173.457031 551.925781 L 193.546875 562 L 196.058594 562 L 173.960938 550.917969 C 165.035156 546.445312 154.921875 541.375 144.152344 540.84375 " fill-opacity="1" fill-rule="nonzero"/><path fill="#1d1d1b" d="M 0 403.433594 L 0 404.570312 C 57.355469 414.867188 110.882812 440.113281 107.160156 498.867188 C 105.546875 524.414062 93.234375 543.859375 77.953125 562 L 79.417969 562 C 94.546875 543.914062 106.671875 524.464844 108.285156 498.9375 C 112.058594 439.3125 57.914062 413.789062 0 403.433594 " fill-opacity="1" fill-rule="nonzero"/><path fill="#1d1d1b" d="M 56.855469 501.300781 C 53.65625 481.628906 39.628906 464.164062 21.109375 456.804688 C 14.304688 454.101562 7.191406 452.996094 0 453.074219 L 0 454.289062 C 7.046875 454.210938 14.011719 455.289062 20.664062 457.933594 C 38.792969 465.140625 52.523438 482.234375 55.652344 501.492188 C 58.882812 521.398438 50.886719 542.367188 35.757812 553.667969 C 31.816406 556.613281 27.789062 559.382812 23.695312 562 L 25.898438 562 C 29.503906 559.660156 33.042969 557.214844 36.484375 554.644531 C 51.96875 543.078125 60.152344 521.636719 56.855469 501.300781 " fill-opacity="1" fill-rule="nonzero"/><path fill="#1d1d1b" d="M 21.824219 497.757812 C 16.671875 491.109375 8.730469 486.597656 0 485.191406 L 0 486.441406 C 8.347656 487.828125 15.925781 492.160156 20.851562 498.511719 C 26.054688 505.222656 27.890625 513.621094 26.023438 522.164062 C 24.1875 530.554688 18.503906 538.601562 10 544.820312 C 6.847656 547.128906 3.472656 549.085938 0 550.828125 L 0 552.199219 C 3.71875 550.367188 7.34375 548.292969 10.730469 545.816406 C 19.472656 539.417969 25.328125 531.113281 27.226562 522.421875 C 29.171875 513.519531 27.257812 504.753906 21.824219 497.757812 " fill-opacity="1" fill-rule="nonzero"/><path fill="#1d1d1b" d="M 47.652344 446.578125 C 34.703125 434.988281 17.628906 427.953125 0 426.171875 L 0 427.300781 C 17.355469 429.074219 34.160156 436.007812 46.902344 447.417969 C 69.089844 467.28125 78.523438 499.539062 70.378906 527.6875 C 66.769531 540.152344 59.886719 551.808594 50.378906 562 L 51.90625 562 C 61.171875 551.863281 67.886719 540.324219 71.457031 528 C 79.71875 499.441406 70.152344 466.722656 47.652344 446.578125 " fill-opacity="1" fill-rule="nonzero"/><path fill="#1d1d1b" d="M 108.320312 427.941406 C 115.847656 432.792969 127.777344 440.476562 138.492188 440.476562 C 140.101562 440.476562 141.6875 440.300781 143.21875 439.917969 C 148.535156 438.597656 152.929688 434.890625 156.28125 428.90625 C 160.429688 421.5 161.222656 411.839844 158.515625 401.714844 C 156.109375 392.71875 151.449219 384.546875 146.945312 376.648438 C 144.371094 372.140625 141.886719 367.335938 139.484375 362.691406 C 128.453125 341.359375 117.039062 319.296875 91.753906 313.101562 C 84.804688 311.398438 77.390625 311.070312 70.214844 310.753906 C 58.304688 310.234375 47.046875 309.738281 37.5625 303.515625 C 26.703125 296.390625 21.796875 283.59375 19.589844 274.109375 C 18.0625 267.53125 17.285156 260.683594 16.535156 254.0625 C 15.964844 249.035156 15.375 243.84375 14.457031 238.78125 C 11.929688 224.785156 6.695312 212.898438 0 201.90625 L 0 204.128906 C 6.164062 214.570312 10.980469 225.839844 13.351562 238.976562 C 14.261719 244.003906 14.847656 249.179688 15.414062 254.191406 C 16.171875 260.84375 16.953125 267.722656 18.496094 274.367188 C 20.746094 284.046875 25.773438 297.128906 36.945312 304.453125 C 46.691406 310.847656 58.625 311.371094 70.167969 311.878906 C 77.285156 312.191406 84.648438 312.515625 91.488281 314.191406 C 116.277344 320.265625 127.570312 342.097656 138.488281 363.210938 C 140.894531 367.863281 143.382812 372.675781 145.964844 377.207031 C 150.441406 385.039062 155.0625 393.144531 157.429688 402.007812 C 160.058594 411.851562 159.304688 421.207031 155.300781 428.359375 C 152.109375 434.0625 147.949219 437.582031 142.949219 438.832031 C 131.65625 441.640625 117.433594 432.476562 108.929688 427 C 82.40625 409.917969 54.398438 400.148438 30.5 392.84375 C 20.59375 389.816406 10.292969 387.753906 0 386.03125 L 0 387.175781 C 10.191406 388.878906 20.382812 390.929688 30.171875 393.917969 C 53.996094 401.199219 81.910156 410.9375 108.320312 427.941406 " fill-opacity="1" fill-rule="nonzero"/><path fill="#1d1d1b" d="M 16.558594 361.726562 C 38.605469 363.496094 63.703125 367.289062 82.679688 381.980469 C 84.929688 383.722656 87.117188 385.636719 89.234375 387.496094 C 93.308594 391.070312 97.527344 394.761719 102.390625 397.390625 C 106.144531 399.417969 110.730469 400.757812 115.210938 400.757812 C 119.300781 400.757812 123.304688 399.640625 126.492188 396.902344 C 135.359375 389.304688 132.570312 374.410156 124.746094 364.398438 C 110.90625 346.691406 88.683594 339.011719 67.183594 331.589844 L 66.613281 331.386719 C 45.007812 323.921875 22.90625 315.066406 10.871094 296.328125 C 5.957031 288.675781 2.808594 280.007812 0 271.382812 L 0 274.957031 C 2.578125 282.570312 5.558594 290.132812 9.925781 296.9375 C 22.15625 315.976562 44.457031 324.917969 66.246094 332.449219 L 66.816406 332.648438 C 88.160156 340.023438 110.226562 347.644531 123.863281 365.09375 C 131.359375 374.6875 134.117188 388.886719 125.761719 396.050781 C 119.492188 401.429688 109.773438 400.101562 102.925781 396.402344 C 98.175781 393.835938 94.003906 390.183594 89.972656 386.648438 C 87.847656 384.78125 85.644531 382.855469 83.371094 381.09375 C 64.160156 366.21875 38.863281 362.390625 16.644531 360.605469 C 12.613281 360.28125 8.492188 360 4.507812 359.734375 C 3.007812 359.628906 1.507812 359.527344 0 359.421875 L 0 360.550781 C 1.480469 360.652344 2.960938 360.75 4.429688 360.851562 C 8.414062 361.121094 12.53125 361.402344 16.558594 361.726562 " fill-opacity="1" fill-rule="nonzero"/><path fill="#1d1d1b" d="M 7.394531 345.429688 C 13.335938 346.175781 19.335938 347.539062 24.421875 348.777344 C 30.632812 350.289062 36.648438 350.4375 43.019531 350.601562 L 45.015625 350.652344 C 45.386719 350.660156 45.761719 350.667969 46.136719 350.667969 C 48.609375 350.667969 51.191406 350.363281 52.886719 348.5625 C 54.132812 347.246094 54.65625 345.761719 54.425781 344.167969 C 54.054688 341.480469 51.613281 339.160156 49.457031 337.886719 C 47.402344 336.667969 45.109375 335.929688 42.890625 335.21875 C 42.28125 335.023438 41.671875 334.824219 41.0625 334.617188 C 30.097656 330.882812 20.3125 323.246094 10.84375 315.863281 C 9.382812 314.726562 7.9375 313.59375 6.503906 312.496094 C 4.261719 310.777344 2.113281 309.027344 0 307.257812 L 0 308.726562 C 1.898438 310.300781 3.824219 311.851562 5.820312 313.386719 C 7.25 314.484375 8.695312 315.613281 10.152344 316.75 C 19.691406 324.191406 29.554688 331.882812 40.699219 335.679688 C 41.316406 335.890625 41.929688 336.089844 42.550781 336.285156 C 44.707031 336.984375 46.9375 337.699219 48.886719 338.851562 C 50.816406 339.992188 52.996094 342.035156 53.316406 344.328125 C 53.492188 345.5625 53.070312 346.730469 52.070312 347.792969 C 50.429688 349.527344 47.703125 349.605469 45.050781 349.527344 L 43.046875 349.476562 C 36.738281 349.320312 30.78125 349.167969 24.683594 347.683594 C 19.570312 346.4375 13.527344 345.0625 7.519531 344.3125 L 5.269531 344.085938 C 3.515625 343.910156 1.761719 343.730469 0 343.542969 L 0 344.671875 C 1.722656 344.859375 3.441406 345.027344 5.15625 345.203125 L 7.394531 345.429688 " fill-opacity="1" fill-rule="nonzero"/><path fill="#1d1d1b" d="M 2.683594 165.785156 C 6.371094 174.628906 10.1875 183.773438 18.933594 186.929688 C 20.707031 187.566406 22.605469 187.875 24.566406 187.875 C 29.675781 187.875 35.164062 185.773438 39.644531 181.894531 C 45.289062 177.007812 48.863281 170.34375 52.039062 163.933594 C 62.898438 142 71.296875 118.808594 76.984375 95.003906 C 78.957031 86.742188 80.882812 77.164062 78.738281 68.058594 C 76.824219 59.945312 70.269531 50.734375 60.402344 49.683594 C 50.625 48.644531 42.804688 55.554688 35.238281 62.238281 C 33.480469 63.796875 31.652344 65.40625 29.863281 66.855469 C 20.375 74.539062 10.035156 79.445312 0 81.15625 L 0 82.296875 C 10.292969 80.582031 20.875 75.582031 30.570312 67.730469 C 32.382812 66.261719 34.210938 64.648438 35.984375 63.082031 C 43.367188 56.554688 50.992188 49.816406 60.285156 50.804688 C 69.605469 51.792969 75.816406 60.578125 77.644531 68.316406 C 79.734375 77.183594 77.835938 86.605469 75.890625 94.742188 C 70.21875 118.46875 61.855469 141.574219 51.03125 163.433594 C 47.90625 169.742188 44.398438 176.296875 38.90625 181.046875 C 33.015625 186.144531 25.324219 188.039062 19.3125 185.871094 C 11.035156 182.886719 7.316406 173.972656 3.71875 165.355469 C 3.128906 163.941406 2.546875 162.542969 1.949219 161.183594 C 1.34375 159.804688 0.683594 158.457031 0 157.117188 L 0 159.664062 C 0.3125 160.320312 0.628906 160.972656 0.917969 161.636719 C 1.515625 162.988281 2.09375 164.378906 2.683594 165.785156 " fill-opacity="1" fill-rule="nonzero"/><path fill="#1d1d1b" d="M 13.632812 146.292969 C 13.957031 146.933594 14.273438 147.578125 14.585938 148.226562 C 15.691406 150.507812 16.839844 152.859375 18.433594 154.910156 C 20.777344 157.917969 23.886719 159.648438 27.425781 159.910156 C 27.722656 159.933594 28.023438 159.945312 28.328125 159.945312 C 31.984375 159.945312 35.757812 158.324219 38.804688 155.425781 C 43.632812 150.828125 45.925781 144.265625 47.953125 138.476562 C 48.996094 135.503906 49.996094 132.4375 50.964844 129.472656 C 52.914062 123.523438 54.925781 117.371094 57.359375 111.582031 C 60.652344 103.753906 63.089844 97.113281 62.042969 88.886719 C 61.554688 85.070312 60.132812 79.957031 56.109375 77.328125 C 55.617188 77.007812 55.089844 76.726562 54.539062 76.496094 C 49.5625 74.421875 43.476562 76.277344 40.074219 80.917969 C 37.234375 84.796875 33.789062 87.574219 28.566406 90.21875 C 19.652344 94.726562 9.644531 96.578125 0 95.554688 L 0 96.6875 C 9.820312 97.699219 20.003906 95.808594 29.070312 91.222656 C 34.464844 88.492188 38.027344 85.609375 40.980469 81.585938 C 44.082031 77.359375 49.601562 75.65625 54.105469 77.535156 C 54.59375 77.734375 55.058594 77.980469 55.492188 78.265625 C 59.160156 80.664062 60.472656 85.445312 60.929688 89.03125 C 61.9375 96.976562 59.550781 103.476562 56.324219 111.148438 C 53.871094 116.976562 51.851562 123.152344 49.898438 129.125 C 48.929688 132.082031 47.929688 135.144531 46.890625 138.105469 C 44.910156 143.777344 42.664062 150.199219 38.027344 154.613281 C 34.960938 157.535156 31.125 159.058594 27.507812 158.792969 C 24.292969 158.550781 21.460938 156.96875 19.320312 154.214844 C 17.796875 152.261719 16.679688 149.960938 15.59375 147.734375 C 15.28125 147.082031 14.964844 146.425781 14.632812 145.78125 C 11.089844 138.785156 6.050781 132.355469 0 126.988281 L 0 128.5 C 5.609375 133.632812 10.296875 139.707031 13.632812 146.292969 " fill-opacity="1" fill-rule="nonzero"/><path fill="#1d1d1b" d="M 60.597656 187.496094 C 55.667969 192.613281 50.570312 197.898438 46 203.425781 C 32.445312 219.8125 21.816406 244.355469 32.625 264.109375 C 41.949219 281.152344 63.203125 287.1875 82.394531 291.5 C 101.332031 295.757812 122.289062 301.699219 131.332031 318.457031 C 133.632812 322.722656 135.007812 327.515625 136.332031 332.140625 C 137.492188 336.1875 138.691406 340.371094 140.507812 344.246094 C 144.21875 352.132812 150.804688 357.167969 157.703125 357.382812 C 157.859375 357.386719 158.023438 357.394531 158.179688 357.394531 C 164.148438 357.394531 169.371094 353.84375 172.933594 347.359375 C 177.242188 339.503906 179.457031 330.097656 181.601562 321 C 182.636719 316.609375 183.617188 312.460938 184.816406 308.464844 C 193.1875 280.5625 205.699219 255.324219 221.007812 235.488281 C 236.25 215.730469 250.550781 206.496094 270.371094 203.625 C 290.742188 200.671875 312.097656 204.945312 328.964844 215.355469 C 332.90625 217.792969 336.722656 220.59375 340.410156 223.296875 C 345.414062 226.972656 350.589844 230.769531 356.183594 233.734375 C 367.75 239.859375 379.40625 240.859375 388.175781 236.480469 C 398.789062 231.179688 404.714844 217.832031 402.277344 204.742188 C 400.222656 193.710938 392.839844 183.25 381.484375 175.292969 C 376.328125 171.679688 370.429688 169.328125 364.726562 167.058594 C 359.378906 164.929688 353.847656 162.730469 349.132812 159.523438 C 342.367188 154.921875 335.9375 148.25 329.714844 141.789062 C 327.511719 139.507812 325.429688 137.347656 323.355469 135.300781 C 303.410156 115.617188 289.929688 97.683594 280.9375 78.859375 C 279.191406 75.203125 277.5625 71.386719 275.980469 67.695312 C 271.929688 58.210938 267.730469 48.40625 261.15625 40.257812 C 250.808594 27.460938 235.359375 19.710938 221.730469 12.875 L 196.054688 0 L 193.546875 0 L 221.226562 13.878906 C 234.753906 20.664062 250.089844 28.355469 260.277344 40.964844 C 266.761719 48.992188 270.921875 58.726562 274.949219 68.136719 C 276.53125 71.839844 278.167969 75.667969 279.925781 79.347656 C 288.976562 98.289062 302.527344 116.324219 322.566406 136.101562 C 324.628906 138.136719 326.707031 140.292969 328.902344 142.574219 C 335.164062 149.070312 341.640625 155.789062 348.5 160.449219 C 353.324219 163.726562 358.90625 165.953125 364.308594 168.105469 C 369.953125 170.347656 375.792969 172.675781 380.839844 176.214844 C 391.953125 184.003906 399.175781 194.207031 401.171875 204.949219 C 403.484375 217.355469 397.679688 230.472656 387.675781 235.472656 C 379.230469 239.6875 367.949219 238.691406 356.710938 232.742188 C 351.191406 229.820312 346.046875 226.042969 341.074219 222.394531 C 337.367188 219.671875 333.535156 216.863281 329.550781 214.402344 C 312.46875 203.851562 290.839844 199.519531 270.207031 202.511719 C 250.066406 205.429688 235.558594 214.785156 220.117188 234.800781 C 204.726562 254.75 192.148438 280.109375 183.738281 308.140625 C 182.53125 312.167969 181.503906 316.523438 180.507812 320.738281 C 178.382812 329.765625 176.183594 339.097656 171.945312 346.824219 C 168.507812 353.085938 163.464844 356.429688 157.738281 356.261719 C 151.265625 356.058594 145.054688 351.273438 141.527344 343.769531 C 139.746094 339.976562 138.558594 335.835938 137.414062 331.835938 C 136.070312 327.144531 134.683594 322.296875 132.320312 317.925781 C 123.050781 300.75 101.820312 294.710938 82.644531 290.402344 C 63.691406 286.140625 42.710938 280.207031 33.609375 263.570312 C 23.078125 244.3125 33.546875 220.242188 46.867188 204.148438 C 51.410156 198.648438 56.496094 193.375 61.40625 188.277344 C 71.5 177.8125 81.9375 166.984375 88.25 153.667969 C 98.117188 132.859375 96.75 108.21875 94.703125 86.761719 L 94.25 82.144531 C 92.210938 61.285156 90.105469 39.71875 96.234375 19.699219 C 98.332031 12.832031 101.796875 6.011719 106.320312 0 L 104.921875 0 C 100.5625 5.953125 97.21875 12.640625 95.15625 19.371094 C 88.964844 39.601562 91.082031 61.285156 93.132812 82.253906 L 93.582031 86.867188 C 95.617188 108.179688 96.980469 132.636719 87.238281 153.183594 C 81.003906 166.339844 70.628906 177.097656 60.597656 187.496094 " fill-opacity="1" fill-rule="nonzero"/><path fill="#1d1d1b" d="M 51.910156 0 L 50.382812 0 C 40.484375 10.609375 27.738281 19.625 12.851562 26.292969 C 8.640625 28.179688 4.347656 29.828125 0 31.316406 L 0 32.507812 C 4.5 30.976562 8.949219 29.273438 13.3125 27.320312 C 28.695312 20.429688 41.8125 11.046875 51.910156 0 " fill-opacity="1" fill-rule="nonzero"/><path fill="#1d1d1b" d="M 68.1875 12.761719 C 72.03125 8.542969 75.8125 4.3125 79.417969 0 L 77.953125 0 C 74.539062 4.046875 70.980469 8.035156 67.355469 12.007812 C 47.40625 33.882812 29.894531 51.191406 1.535156 58.425781 C 1.027344 58.558594 0.507812 58.660156 0 58.78125 L 0 59.9375 C 0.601562 59.792969 1.210938 59.667969 1.8125 59.515625 C 30.476562 52.199219 48.109375 34.777344 68.1875 12.761719 " fill-opacity="1" fill-rule="nonzero"/><path fill="#1d1d1b" d="M 553.058594 93.859375 C 549.1875 92.925781 545.203125 91.976562 541.128906 92.085938 C 535.292969 92.25 528.671875 95.527344 527.308594 101.464844 C 525.960938 107.308594 529.164062 112.179688 535.464844 113.878906 C 541.167969 115.417969 546.628906 117.742188 551.703125 120.796875 C 555.382812 123.007812 558.839844 125.605469 562 128.5 L 562 126.988281 C 558.988281 124.320312 555.734375 121.910156 552.285156 119.832031 C 547.117188 116.726562 541.558594 114.359375 535.757812 112.796875 C 531.25 111.578125 526.949219 108.03125 528.402344 101.714844 C 529.640625 96.335938 535.757812 93.363281 541.164062 93.207031 C 541.378906 93.203125 541.59375 93.199219 541.804688 93.199219 C 545.503906 93.199219 549.207031 94.089844 552.792969 94.953125 C 554.492188 95.359375 556.25 95.78125 557.996094 96.109375 C 559.316406 96.355469 560.65625 96.550781 562 96.6875 L 562 95.554688 C 560.726562 95.421875 559.457031 95.242188 558.199219 95.003906 C 556.484375 94.683594 554.742188 94.261719 553.058594 93.859375 " fill-opacity="1" fill-rule="nonzero"/></svg>